# xmcd
# 
# Track frame offsets:
#     150
#     17432
#     30555
#     53411
#     65417
#     87871
#     106452
#     121528
#     136927
#     157905
#     172095
#     187788
#     207771
#     229634
#     247916
#     267249
#     280036
# 
# Disc length: 4029
# 
# Revision: 2
# Processed by: cddbd v1.5.2PL0 Copyright (c) Steve Scherf et al.
# Submitted via: BonkEnc v1.0.6
# 
DISCID=ca0fbb11
DTITLE=Deák Bill Gyula - Hatvan csapás
DYEAR=2008
DGENRE=Blues
TTITLE0=Hatvan csapás
TTITLE1=A nagy generáció temetésére
TTITLE2=Kéne egy üveg bor
TTITLE3=Lát-e, aki lát
TTITLE4=Jó volna
TTITLE5=Péntek esti blues
TTITLE6=Anyám és apám
TTITLE7=Az országút elõttem
TTITLE8=A titkos lány
TTITLE9=Hóhér blues
TTITLE10=Bill kapitány imája
TTITLE11=Most vagy soha
TTITLE12=Angyalok asztalodon
TTITLE13=Intések fiamnak
TTITLE14=Nem vagyok eladó
TTITLE15=Soha és mindig
TTITLE16=A zöld, a bíbor, a fekete
EXTD=
EXTT0=
EXTT1=
EXTT2=
EXTT3=
EXTT4=
EXTT5=
EXTT6=
EXTT7=
EXTT8=
EXTT9=
EXTT10=
EXTT11=
EXTT12=
EXTT13=
EXTT14=
EXTT15=
EXTT16=
PLAYORDER=
